<svg width="51.787" height="51.787" xmlns="http://www.w3.org/2000/svg" xmlns:svg="http://www.w3.org/2000/svg" x="0px" y="0px" viewBox="0 0 51.787 51.787" fill="{{ color }}" xmlns:xlink="http://www.w3.org/1999/xlink" version="1.1" xml:space="preserve">
 <g class="layer">
  <title>Layer 1</title>
  <g id="svg_1">
   <g id="svg_2">
    <path d="m25.892,0c-7.646,0 -13.845,6.198 -13.845,13.845c0,1.494 0.244,2.929 0.68,4.274c0.981,3.461 12.292,33.668 12.292,33.668s12.014,-27.703 13.83,-33.096c0.565,-1.511 0.891,-3.14 0.891,-4.848c-0.002,-7.644 -6.201,-13.843 -13.848,-13.843zm0,24.761c-6,0 -10.865,-4.867 -10.865,-10.865c0,-6.003 4.865,-10.868 10.865,-10.868c6.003,0 10.866,4.865 10.866,10.868c0,5.998 -4.863,10.865 -10.866,10.865z" id="svg_3"/>
   </g>
  </g>
  <use id="svg_6" transform="matrix(0.719264 0 0 0.719264 0 0)" x="24.15664" xlink:href="#svg_5" y="7.12534"/>
 </g>
 <defs>
  <symbol height="24px" id="svg_5" viewBox="0 0 24 24" width="24px" xmlns="http://www.w3.org/2000/svg">
   <path d="m0,0l24,0l0,24l-24,0l0,-24z" fill="none"/>
   <path d="m12,7l0,-4l-10,0l0,18l20,0l0,-14l-10,0zm-6,12l-2,0l0,-2l2,0l0,2zm0,-4l-2,0l0,-2l2,0l0,2zm0,-4l-2,0l0,-2l2,0l0,2zm0,-4l-2,0l0,-2l2,0l0,2zm4,12l-2,0l0,-2l2,0l0,2zm0,-4l-2,0l0,-2l2,0l0,2zm0,-4l-2,0l0,-2l2,0l0,2zm0,-4l-2,0l0,-2l2,0l0,2zm10,12l-8,0l0,-2l2,0l0,-2l-2,0l0,-2l2,0l0,-2l-2,0l0,-2l8,0l0,10zm-2,-8l-2,0l0,2l2,0l0,-2zm0,4l-2,0l0,2l2,0l0,-2z"/>
  </symbol>
 </defs>
</svg>