<svg id="Layer_1" data-name="Layer 1" xmlns="http://www.w3.org/2000/svg" viewBox="0 0 426.95 77.13"><defs><style>.cls-1{fill:#fff;}.cls-2{fill:#ffcb05;}.cls-3{fill:#faa61a;}</style></defs><polygon class="cls-1" points="103.01 50.25 92.5 41.92 92.5 0.1 103.01 0.1 103.01 50.25 103.01 50.25"/><path class="cls-1" d="M279.5,40.06a14,14,0,0,0,6.17-4.44,10.25,10.25,0,0,0,2.23-6.45,10.84,10.84,0,0,0-5.54-9.76q-4.92-3-12.86-3H225.32V34.85q0,4.08-3,5.54-2.25,1.13-7.55,1.13c-4.43,0-7.37-.25-8.8-.76q-4-1.3-4-5.91V16.4H164.22q-9,0-14.7,4.6a14.71,14.71,0,0,0-5.72,12,15.48,15.48,0,0,0,5.79,12.32q5.81,4.9,14.63,4.91h23.51l.24-8.73H164.25a11.07,11.07,0,0,1-7.13-2.26,7.18,7.18,0,0,1-2.81-5.84,7.42,7.42,0,0,1,2.81-6,10.83,10.83,0,0,1,7.13-2.33h27.14v9.72q0,15.39,21.12,15.4h2.2q21.12,0,21.13-15.4V25.13h34.65q6.61,0,6.62,4a3.31,3.31,0,0,1-2.21,3.09,10.47,10.47,0,0,1-4.41.81h-29.2V50.25h10.52v-8.5h14.45l14.8,17.62h15.26Z"/><path class="cls-1" d="M422.68,30.91a17,17,0,0,0-10.28-3H395.17q-1.92,0-1.92-1.38c0-.92.64-1.39,1.92-1.39l25.35.1,6-8.83H395.17A16.63,16.63,0,0,0,385.59,19a8.86,8.86,0,0,0,0,15,16.62,16.62,0,0,0,9.58,2.62H412.4a8.53,8.53,0,0,1,3,.47c1.13.44,1.69,1.08,1.69,1.93s-.56,1.45-1.68,1.92a7.37,7.37,0,0,1-3,.57H347.24V25.13h24.25l0-8.73H332L316.78,37.34,289.91.1H107.27V8.87l17,0V50.25h10.51V8.84H282.6l28.26,38.07c1.88,2.57,3.87,3.38,5.82,3.38s3.76-.79,5.64-3.33l14.41-19.3V50.25h75.68a16.81,16.81,0,0,0,10.22-3A9.56,9.56,0,0,0,427,39.17,9.86,9.86,0,0,0,422.68,30.91Z"/><polygon class="cls-1" points="352.68 29.37 372.04 29.37 367.01 36.9 352.68 36.9 352.68 29.37 352.68 29.37"/><path class="cls-2" d="M77.31,53.17l-19.9,24H44L59.37,58.39l-31.75,0-7.8-10.22,39.55,0L44.14,29l13.27,0,19.9,24.24Z"/><polygon class="cls-1" points="0 23.95 19.9 48.2 33.18 48.16 17.94 28.88 57.5 28.92 49.7 18.69 17.94 18.73 33.31 0 19.9 0 0 23.95 0 23.95"/><polygon class="cls-2" points="77.31 53.17 57.41 28.93 44.13 28.96 59.37 48.24 19.82 48.2 27.62 58.43 59.37 58.39 44 77.13 57.41 77.13 77.31 53.17 77.31 53.17"/><polygon class="cls-3" points="77.31 53.17 57.41 28.93 44.13 28.96 59.37 48.24 19.82 48.2 27.62 58.43 59.37 58.39 44 77.13 57.41 77.13 77.31 53.17 77.31 53.17"/><path class="cls-1" d="M91.31,77V67.07H92.6V77Z"/><path class="cls-1" d="M95.39,77V67.07h2l6.25,8.86V67.07h1.27V77h-2l-6.25-8.87V77Z"/><path class="cls-1" d="M106.11,68.12V67.07h8.63v1.05h-3.68V77h-1.28V68.12Z"/><path class="cls-1" d="M116,77V67.07h8.09v1.05h-6.82v3.25h6.62v1h-6.62V76h6.82v1Z"/><path class="cls-1" d="M126.1,77V67.07h1.25V76h6.54v1Z"/><path class="cls-1" d="M135.57,77V67.07h1.26V76h6.54v1Z"/><path class="cls-1" d="M145.05,77V67.07h1.28V77Z"/><path class="cls-1" d="M148.68,70.35a3.28,3.28,0,0,1,.91-2.65,5.24,5.24,0,0,1,3.24-.75h1.47a6.1,6.1,0,0,1,3.14.63,2.12,2.12,0,0,1,1,1.94v.42h-1.32v-.12a1.59,1.59,0,0,0-.6-1.43,4.58,4.58,0,0,0-2.31-.4h-1a8.57,8.57,0,0,0-1.7.11,2.14,2.14,0,0,0-.88.38,1.23,1.23,0,0,0-.47.66,5.38,5.38,0,0,0-.14,1.48v2.83a5.44,5.44,0,0,0,.14,1.48,1.3,1.3,0,0,0,.47.66,2.33,2.33,0,0,0,.86.38,9.53,9.53,0,0,0,1.72.11h1a7.92,7.92,0,0,0,1.55-.1,2,2,0,0,0,.79-.34A1.17,1.17,0,0,0,157,75a4.65,4.65,0,0,0,.13-1.34v-.62h-3.2v-1h4.52v1.66a3.26,3.26,0,0,1-.92,2.65,5.23,5.23,0,0,1-3.23.74h-1.47a5.25,5.25,0,0,1-3.24-.74,3.26,3.26,0,0,1-.91-2.65Z"/><path class="cls-1" d="M160.76,77V67.07h8.09v1.05H162v3.25h6.63v1H162V76h6.82v1Z"/><path class="cls-1" d="M170.9,77V67.07h2l6.25,8.86V67.07h1.27V77h-2l-6.25-8.87V77Z"/><path class="cls-1" d="M181.62,68.12V67.07h8.64v1.05h-3.69V77H185.3V68.12Z"/><path class="cls-1" d="M195.27,68.12V67.07h8.63v1.05h-3.69V77h-1.27V68.12Z"/><path class="cls-1" d="M205.12,77V67.07h5.2a5.12,5.12,0,0,1,2.68.5,2,2,0,0,1,.73,1.77v1.5a1.83,1.83,0,0,1-.37,1.22,1.69,1.69,0,0,1-1.11.56,1.86,1.86,0,0,1,1.15.6,2.35,2.35,0,0,1,.33,1.39V77H212.4V75a2,2,0,0,0-.39-1.44,2.21,2.21,0,0,0-1.53-.38h-4.09V77Zm4.95-8.87h-3.68v4h3.68a3.77,3.77,0,0,0,1.88-.31,1.23,1.23,0,0,0,.45-1.1V69.53a1.26,1.26,0,0,0-.43-1.11A4,4,0,0,0,210.07,68.12Z"/><path class="cls-1" d="M215,77l4.26-9.92h2.09L225.64,77h-1.32l-1.1-2.53h-5.83L216.31,77Zm2.81-3.51h5l-2.3-5.36h-.41Z"/><path class="cls-1" d="M227.19,77V67.07h2l6.25,8.86V67.07h1.27V77h-2l-6.25-8.87V77Z"/><path class="cls-1" d="M239.16,73.76h1.29V74a4.09,4.09,0,0,0,.15,1.3,1,1,0,0,0,.52.6A2.69,2.69,0,0,0,242,76c.38,0,1.18,0,2.39,0A7.67,7.67,0,0,0,245.9,76a1.61,1.61,0,0,0,.8-.35.86.86,0,0,0,.22-.46,4.7,4.7,0,0,0,.07-.86,2.36,2.36,0,0,0-.26-1.39,1.59,1.59,0,0,0-1-.34l-3.55-.24a3.62,3.62,0,0,1-2.21-.68,2.62,2.62,0,0,1-.61-2,3.86,3.86,0,0,1,.2-1.39,1.93,1.93,0,0,1,.65-.87,2.29,2.29,0,0,1,1-.38,15.49,15.49,0,0,1,2.22-.11h.41a14.14,14.14,0,0,1,2.5.15,3,3,0,0,1,1.21.51,1.34,1.34,0,0,1,.49.68,3.16,3.16,0,0,1,.16,1.1v.3a1.21,1.21,0,0,0,0,.18h-1.29v-.25a3.54,3.54,0,0,0-.07-.83.77.77,0,0,0-.24-.43,1.65,1.65,0,0,0-.86-.29,20,20,0,0,0-2.33-.08,4.47,4.47,0,0,0-2.24.34,1.68,1.68,0,0,0-.46,1.39,1.27,1.27,0,0,0,1.45,1.56l3.63.26a3.16,3.16,0,0,1,2,.67,2.64,2.64,0,0,1,.57,1.91,5.37,5.37,0,0,1-.15,1.46,1.81,1.81,0,0,1-.49.81,2.18,2.18,0,0,1-1.12.57,13.37,13.37,0,0,1-2.59.17h-.57a12.81,12.81,0,0,1-2.26-.14,2.72,2.72,0,0,1-1.1-.49,1.84,1.84,0,0,1-.64-.87,3.85,3.85,0,0,1-.21-1.38Z"/><path class="cls-1" d="M250.79,77V67.07h4.86a5.08,5.08,0,0,1,2.67.5,2,2,0,0,1,.74,1.77v1.5a2,2,0,0,1-.73,1.8,5,5,0,0,1-2.68.5h-3.59V77Zm6.93-6.15V69.38a1.12,1.12,0,0,0-.39-1,3.44,3.44,0,0,0-1.7-.27h-3.57v4h3.57a3.3,3.3,0,0,0,1.69-.28A1.09,1.09,0,0,0,257.72,70.84Z"/><path class="cls-1" d="M260.81,70.35a3.28,3.28,0,0,1,.92-2.65A5.24,5.24,0,0,1,265,67h1.46a5.33,5.33,0,0,1,3.26.74,3.3,3.3,0,0,1,.9,2.66v3.37a3.26,3.26,0,0,1-.92,2.65,5.25,5.25,0,0,1-3.24.74H265a5.25,5.25,0,0,1-3.24-.74,3.26,3.26,0,0,1-.92-2.65ZM266.05,68h-.71a8.6,8.6,0,0,0-1.72.11,2.16,2.16,0,0,0-.87.38,1.33,1.33,0,0,0-.48.68,5.54,5.54,0,0,0-.14,1.48v2.81a5.36,5.36,0,0,0,.14,1.46,1.33,1.33,0,0,0,.48.68,2.3,2.3,0,0,0,.87.38,9.45,9.45,0,0,0,1.72.11h.71a9.66,9.66,0,0,0,1.73-.11,2.3,2.3,0,0,0,.87-.38,1.3,1.3,0,0,0,.47-.66,5.44,5.44,0,0,0,.14-1.48V70.62a5.45,5.45,0,0,0-.14-1.47,1.32,1.32,0,0,0-.48-.69,2.3,2.3,0,0,0-.86-.36A8.72,8.72,0,0,0,266.05,68Z"/><path class="cls-1" d="M273,77V67.07h5.21a5.1,5.1,0,0,1,2.67.5,2,2,0,0,1,.73,1.77v1.5a1.89,1.89,0,0,1-.36,1.22,1.74,1.74,0,0,1-1.12.56,1.86,1.86,0,0,1,1.15.6,2.35,2.35,0,0,1,.33,1.39V77h-1.33V75a2,2,0,0,0-.39-1.44,2.21,2.21,0,0,0-1.53-.38h-4.09V77ZM278,68.12h-3.68v4H278a3.85,3.85,0,0,0,1.89-.31,1.25,1.25,0,0,0,.44-1.1V69.53a1.26,1.26,0,0,0-.43-1.11A4,4,0,0,0,278,68.12Z"/><path class="cls-1" d="M282.24,68.12V67.07h8.64v1.05h-3.69V77h-1.28V68.12Z"/><path class="cls-1" d="M289.58,77l4.26-9.92h2.1L300.23,77h-1.32l-1.1-2.53H292L290.9,77Zm2.82-3.51h5l-2.3-5.36h-.41Z"/><path class="cls-1" d="M298.91,68.12V67.07h8.64v1.05h-3.69V77h-1.28V68.12Z"/><path class="cls-1" d="M308.76,77V67.07h1.29V77Z"/><path class="cls-1" d="M312.47,70.35a3.28,3.28,0,0,1,.92-2.65,5.24,5.24,0,0,1,3.24-.75h1.46a5.33,5.33,0,0,1,3.26.74,3.3,3.3,0,0,1,.9,2.66v3.37a3.26,3.26,0,0,1-.92,2.65,5.25,5.25,0,0,1-3.24.74h-1.46a5.25,5.25,0,0,1-3.24-.74,3.26,3.26,0,0,1-.92-2.65ZM317.71,68H317a8.6,8.6,0,0,0-1.72.11,2.16,2.16,0,0,0-.87.38,1.33,1.33,0,0,0-.48.68,5.54,5.54,0,0,0-.14,1.48v2.81a5.36,5.36,0,0,0,.14,1.46,1.33,1.33,0,0,0,.48.68,2.3,2.3,0,0,0,.87.38,9.45,9.45,0,0,0,1.72.11h.71a9.66,9.66,0,0,0,1.73-.11,2.3,2.3,0,0,0,.87-.38,1.3,1.3,0,0,0,.47-.66,5.44,5.44,0,0,0,.14-1.48V70.62a5.45,5.45,0,0,0-.14-1.47,1.32,1.32,0,0,0-.48-.69,2.3,2.3,0,0,0-.86-.36A8.72,8.72,0,0,0,317.71,68Z"/><path class="cls-1" d="M324.66,77V67.07h2l6.25,8.86V67.07h1.27V77h-2l-6.25-8.87V77Z"/><path class="cls-1" d="M342,73.76h1.28V74a3.77,3.77,0,0,0,.16,1.3,1,1,0,0,0,.51.6,2.69,2.69,0,0,0,.86.19c.39,0,1.18,0,2.39,0a7.6,7.6,0,0,0,1.53-.11,1.61,1.61,0,0,0,.8-.35.86.86,0,0,0,.22-.46,4,4,0,0,0,.07-.86,2.36,2.36,0,0,0-.26-1.39,1.57,1.57,0,0,0-1-.34L345,72.34a3.62,3.62,0,0,1-2.21-.68,2.62,2.62,0,0,1-.61-2,4.09,4.09,0,0,1,.2-1.39,1.93,1.93,0,0,1,.65-.87,2.28,2.28,0,0,1,1-.38A15.22,15.22,0,0,1,346.2,67h.41a14.14,14.14,0,0,1,2.5.15,3,3,0,0,1,1.21.51,1.34,1.34,0,0,1,.49.68,3.16,3.16,0,0,1,.16,1.1v.3c0,.07,0,.13,0,.18h-1.29v-.25a3.54,3.54,0,0,0-.07-.83.77.77,0,0,0-.24-.43,1.6,1.6,0,0,0-.85-.29,20.26,20.26,0,0,0-2.34-.08,4.47,4.47,0,0,0-2.24.34,1.69,1.69,0,0,0-.45,1.39,1.26,1.26,0,0,0,1.44,1.56l3.63.26a3.16,3.16,0,0,1,2,.67,2.64,2.64,0,0,1,.57,1.91,5.37,5.37,0,0,1-.15,1.46,1.88,1.88,0,0,1-.48.81,2.21,2.21,0,0,1-1.13.57,13.25,13.25,0,0,1-2.58.17h-.58a12.89,12.89,0,0,1-2.26-.14,2.72,2.72,0,0,1-1.1-.49,1.84,1.84,0,0,1-.64-.87,3.87,3.87,0,0,1-.2-1.38Z"/><path class="cls-1" d="M353.26,70.35a3.28,3.28,0,0,1,.91-2.65,5.25,5.25,0,0,1,3.25-.75h1.45a5.33,5.33,0,0,1,3.26.74,3.3,3.3,0,0,1,.9,2.66v3.37a3.26,3.26,0,0,1-.91,2.65,5.3,5.3,0,0,1-3.25.74h-1.45a5.26,5.26,0,0,1-3.25-.74,3.26,3.26,0,0,1-.91-2.65ZM358.5,68h-.72a8.67,8.67,0,0,0-1.72.11,2.17,2.17,0,0,0-.86.38,1.41,1.41,0,0,0-.49.68,5.65,5.65,0,0,0-.13,1.48v2.81a5.47,5.47,0,0,0,.13,1.46,1.41,1.41,0,0,0,.49.68,2.33,2.33,0,0,0,.86.38,9.53,9.53,0,0,0,1.72.11h.72a9.53,9.53,0,0,0,1.72-.11,2.35,2.35,0,0,0,.88-.38,1.37,1.37,0,0,0,.47-.66,5.55,5.55,0,0,0,.13-1.48V70.62a5.06,5.06,0,0,0-.14-1.47,1.32,1.32,0,0,0-.48-.69,2.23,2.23,0,0,0-.86-.36A8.6,8.6,0,0,0,358.5,68Z"/><path class="cls-1" d="M365.44,77V67.07h7.21v1.05h-5.94v3.25h5.76v1h-5.76V77Z"/><path class="cls-1" d="M371.53,68.12V67.07h8.64v1.05h-3.69V77H375.2V68.12Z"/><path class="cls-1" d="M380.46,67.07h1.32l2.63,8.59,2.65-8.59h1.82l2.66,8.59,2.63-8.59h1.34L392.36,77h-1.63L388,68.26,385.26,77h-1.7Z"/><path class="cls-1" d="M395.58,77l4.26-9.92h2.1L406.22,77H404.9l-1.1-2.53H398L396.89,77Zm2.82-3.51h5l-2.3-5.36h-.41Z"/><path class="cls-1" d="M407.77,77V67.07H413a5.12,5.12,0,0,1,2.68.5,2,2,0,0,1,.73,1.77v1.5a1.89,1.89,0,0,1-.36,1.22,1.74,1.74,0,0,1-1.12.56,1.86,1.86,0,0,1,1.15.6,2.35,2.35,0,0,1,.33,1.39V77h-1.33V75a2,2,0,0,0-.39-1.44,2.21,2.21,0,0,0-1.53-.38H409V77Zm5-8.87H409v4h3.68a3.85,3.85,0,0,0,1.89-.31,1.25,1.25,0,0,0,.44-1.1V69.53a1.26,1.26,0,0,0-.43-1.11A4,4,0,0,0,412.72,68.12Z"/><path class="cls-1" d="M418.86,77V67.07H427v1.05h-6.82v3.25h6.63v1h-6.63V76H427v1Z"/></svg>