<svg width="51.787" height="51.787" xmlns="http://www.w3.org/2000/svg" xmlns:svg="http://www.w3.org/2000/svg" xmlns:xlink="http://www.w3.org/1999/xlink" x="0px" y="0px" viewBox="0 0 51.787 51.787" fill="{{ color }}" version="1.1" xml:space="preserve">
 <g class="layer">
  <title>Layer 1</title>
  <g id="svg_1">
   <g id="svg_2">
    <path d="m25.892,0c-7.646,0 -13.845,6.198 -13.845,13.845c0,1.494 0.244,2.929 0.68,4.274c0.981,3.461 12.292,33.668 12.292,33.668s12.014,-27.703 13.83,-33.096c0.565,-1.511 0.891,-3.14 0.891,-4.848c-0.002,-7.644 -6.201,-13.843 -13.848,-13.843zm0,24.761c-6,0 -10.865,-4.867 -10.865,-10.865c0,-6.003 4.865,-10.868 10.865,-10.868c6.003,0 10.866,4.865 10.866,10.868c0,5.998 -4.863,10.865 -10.866,10.865z" id="svg_3"/>
   </g>
  </g>
  <use id="svg_8" transform="matrix(0.832445 0 0 0.823243 -29.5975 91.4643)" x="54.62221" xlink:href="#svg_7" y="-106.11257"/>
 </g>
 <defs>
  <symbol height="24px" id="svg_7" viewBox="0 0 24 24" width="24px" xmlns="http://www.w3.org/2000/svg">
   <path d="m0,0l24,0l0,24l-24,0l0,-24z" fill="none"/>
   <path d="m12,2c-4.42,0 -8,0.5 -8,4l0,10c0,0.88 0.39,1.67 1,2.22l0,1.78c0,0.55 0.45,1 1,1l1,0c0.55,0 1,-0.45 1,-1l0,-1l8,0l0,1c0,0.55 0.45,1 1,1l1,0c0.55,0 1,-0.45 1,-1l0,-1.78c0.61,-0.55 1,-1.34 1,-2.22l0,-10c0,-3.5 -3.58,-4 -8,-4zm5.66,2.99l-11.32,0c0.55,-0.53 1.97,-0.99 5.66,-0.99s5.11,0.46 5.66,0.99zm0.34,2l0,3.01l-12,0l0,-3.01l12,0zm-0.34,9.74l-0.29,0.27l-10.74,0l-0.29,-0.27c-0.13,-0.11 -0.34,-0.36 -0.34,-0.73l0,-4l12,0l0,4c0,0.37 -0.21,0.62 -0.34,0.73z"/>
   <circle cx="8.5" cy="14.5" r="1.5"/>
   <circle cx="15.5" cy="14.5" r="1.5"/>
  </symbol>
 </defs>
</svg>