<svg width="51.787" height="51.787" xmlns="http://www.w3.org/2000/svg" xmlns:svg="http://www.w3.org/2000/svg" xmlns:xlink="http://www.w3.org/1999/xlink" version="1.1" xml:space="preserve">
 <g class="layer">
  <title>Layer 1</title>
  <g id="svg_1">
   <g id="svg_2">
    <path d="m25.892,0c-7.646,0 -13.845,6.198 -13.845,13.845c0,1.494 0.244,2.929 0.68,4.274c0.981,3.461 12.292,33.668 12.292,33.668s12.014,-27.703 13.83,-33.096c0.565,-1.511 0.891,-3.14 0.891,-4.848c-0.002,-7.644 -6.201,-13.843 -13.848,-13.843zm0,24.761c-6,0 -10.865,-4.867 -10.865,-10.865c0,-6.003 4.865,-10.868 10.865,-10.868c6.003,0 10.866,4.865 10.866,10.868c0,5.998 -4.863,10.865 -10.866,10.865z" id="svg_3"/>
    <use id="svg_5" transform="matrix(0.803041 0 0 0.825998 15.9753 67.0749)" x="0.46698" xlink:href="#svg_4" y="-76.27141"/>
   </g>
  </g>
 </g>
 <defs>
  <symbol enable-background="new 0 0 24 24" height="24px" id="svg_4" viewBox="0 0 24 24" width="24px" xmlns="http://www.w3.org/2000/svg">
   <rect fill="none" height="24" width="24"/>
   <path d="m7.76,16.24c-1.09,-1.08 -1.76,-2.58 -1.76,-4.24s0.67,-3.16 1.76,-4.24l1.42,1.42c-0.73,0.72 -1.18,1.72 -1.18,2.82c0,1.1 0.45,2.1 1.17,2.83l-1.41,1.41zm8.48,0c1.09,-1.08 1.76,-2.58 1.76,-4.24s-0.67,-3.16 -1.76,-4.24l-1.42,1.42c0.73,0.72 1.18,1.72 1.18,2.82c0,1.1 -0.45,2.1 -1.17,2.83l1.41,1.41zm-4.24,-6.24c-1.1,0 -2,0.9 -2,2s0.9,2 2,2s2,-0.9 2,-2s-0.9,-2 -2,-2zm8,2c0,2.21 -0.9,4.21 -2.35,5.65l1.42,1.42c1.81,-1.81 2.93,-4.31 2.93,-7.07s-1.12,-5.26 -2.93,-7.07l-1.42,1.42c1.45,1.44 2.35,3.44 2.35,5.65zm-13.65,-5.65l-1.42,-1.42c-1.81,1.81 -2.93,4.31 -2.93,7.07s1.12,5.26 2.93,7.07l1.42,-1.42c-1.45,-1.44 -2.35,-3.44 -2.35,-5.65s0.9,-4.21 2.35,-5.65z"/>
  </symbol>
 </defs>
</svg>